Simulation
nRows=35
nColumns=15
endheader
time  TH_x TH_y TH_z SC_y  SC_z  SC_x  AC_y  AC_z  AC_x  GH_y  GH_z  GH_yy  EL_x  PS_y
0.0  0.000000  0.000000  0.000000  -28.416807847879603  3.293742281137505  8.314043017185854  50.42487168086769  3.6639707208379733  -1.6615263700264673  136.12707885920628  3.875593428918364  -99.33655981073089  20.68761989277498  120.000000
0.02949999999999999  0.000000  0.000000  0.000000  -28.3744786649673  3.3371043988587363  7.573234183181682  50.397280149074824  4.2667990126924185  -1.1337216182753105  132.6466210503782  3.6576771147685623  -95.86892460882706  20.709449416682432  120.000000
0.05899999999999998  0.000000  0.000000  0.000000  -28.331621940579836  3.36465736764923  6.864870810358733  50.367280394067336  4.7554729767723805  -0.6565208195709781  129.17934040223895  3.4705083401235677  -92.44750416361713  20.700877090548765  120.000000
0.08849999999999997  0.000000  0.000000  0.000000  -28.284948133731756  3.3801136591683454  6.197955358612924  50.33094477682109  5.136985580260906  -0.22049155859509512  125.34059792872964  3.3065935078810873  -88.6956665813629  20.621732545804395  120.000000
0.11799999999999997  0.000000  0.000000  0.000000  -28.23280228158383  3.390596951155046  5.570732037631584  50.290249681863756  5.4238652738710025  0.18368224220806417  120.64377839220526  3.165738935097011  -84.13914353063184  20.44878797441416  120.000000
0.14749999999999996  0.000000  0.000000  0.000000  -28.174957614041023  3.4012089690463885  4.982498276234973  50.24829250794986  5.630929631606401  0.5612616587590175  114.59153156142939  3.054634774268288  -78.29660479568808  20.174941513150102  120.000000
0.17699999999999994  0.000000  0.000000  0.000000  -28.113269040600038  3.417782772089204  4.434537702747111  50.208427770276934  5.773756742298286  0.9159660314666327  106.81177848884244  2.991143161021303  -70.81372205661121  19.807911243273818  120.000000
0.20649999999999993  0.000000  0.000000  0.000000  -28.050139008968596  3.4429583611992443  3.93022124511033  50.173335011432336  5.868594573265465  1.2503260267969165  97.26553241493232  3.0046041021223613  -61.67023156345973  19.36285310441208  120.000000
0.23599999999999993  0.000000  0.000000  0.000000  -27.988884528429356  3.479211552404529  3.4744958860445667  50.146323506041924  5.931267977501216  1.566453792128001  86.44198956214807  3.132951563061542  -51.375024165112954  18.86040334367856  120.000000
0.2654999999999999  0.000000  0.000000  0.000000  -27.932865625741904  3.5272953310557837  3.073297883888731  50.13090828288424  5.977404136212549  1.8652712932212514  75.3278233514656  3.4098502829077963  -40.93477071590539  18.32264980414399  120.000000
0.29499999999999993  0.000000  0.000000  0.000000  -27.886544726954217  3.5879216948288026  2.732366829304313  50.1305252342041  6.021372132155356  2.146594253001603  64.98044809146212  3.852369834102916  -31.427459921686278  17.773561998857275  120.000000
0.3244999999999999  0.000000  0.000000  0.000000  -27.855414025003558  3.660548463486094  2.457170641338266  50.147432992848344  6.075852076525402  2.408744675866104  56.046362856138224  4.45758925596306  -23.519447173817134  17.23789609859827  120.000000
0.35399999999999987  0.000000  0.000000  0.000000  -27.847116189772088  3.744682597446682  2.2522051422048426  50.182401642036695  6.151275910663187  2.6494791429243727  48.66962582997645  5.210358161382228  -17.37339948516884  16.742574124392302  120.000000
0.3834999999999999  0.000000  0.000000  0.000000  -27.87086415111616  3.83878090029309  2.120709955241258  50.234787829008795  6.255844014948563  2.8660217694430496  42.6869686566344  6.091162032930969  -12.840214368039009  16.315127420632535  120.000000
0.41299999999999987  0.000000  0.000000  0.000000  -27.937669261994674  3.9409760094824047  2.064460021271549  50.303436765658866  6.395644595254236  3.0558947609955913  37.8383672275873  7.080916766115186  -9.66700022712364  15.982115025988778  120.000000
0.4424999999999999  0.000000  0.000000  0.000000  -28.05846572429226  4.048384878869418  2.0838708299881157  50.38797405840662  6.575009428214167  3.2175093329425435  33.87241082690205  8.162039215618647  -7.597662128575337  15.76448563598593  120.000000
0.47199999999999986  0.000000  0.000000  0.000000  -28.243015119411332  4.157536282035201  2.178594343870637  50.48972901747081  6.796815528627224  3.350889166392022  30.582336497355985  9.318369012649697  -6.405519639956039  15.672572124438332  120.000000
0.5014999999999998  0.000000  0.000000  0.000000  -28.49718216846875  4.264554125836163  2.347543653011863  50.61267483429026  7.06266761865689  3.4577327407998397  27.8055438269227  10.534533640132823  -5.890805515853887  15.701060010663179  120.000000
0.5309999999999998  0.000000  0.000000  0.000000  -28.82250649012153  4.365986012844166  2.589163271530356  50.76266472447581  7.37287363780362  3.541255624198442  25.419169833334266  11.795594408165341  -5.877113350763877  15.828179482942481  120.000000
0.5604999999999999  0.000000  0.000000  0.000000  -29.21556528813065  4.4593940083740495  2.9012815627155986  50.94549847391118  7.72614286821667  3.6057133180741823  23.33040962602332  13.086885888942671  -6.208745297566843  16.019670382872295  120.000000
0.5899999999999999  0.000000  0.000000  0.000000  -29.669413280815064  4.544103087809379  3.280996262737229  51.16428485706934  8.11966660854065  3.6561052177991797  21.471442709391482  14.394046483116782  -6.752644193499446  16.23646828728086  120.000000
0.6194999999999998  0.000000  0.000000  0.000000  -30.173675180045464  4.621870680727395  3.724237772251885  51.41790628345695  8.548518505043699  3.697389794469845  19.793186534984617  15.703197998627456  -7.403696880118969  16.443006357510566  120.000000
0.6489999999999998  0.000000  0.000000  0.000000  -30.715927014326958  4.696998665867651  4.225651306134927  51.69999288630215  9.005867648041672  3.734114811464056  18.260286861599358  17.00073101364558  -8.086142830200966  16.61443753354687  120.000000
0.6784999999999998  0.000000  0.000000  0.000000  -31.281813957111606  4.775783130737026  4.778605573481571  51.999514846852875  9.482662790804248  3.770195052212963  16.845789536502817  18.273399884447475  -8.75445382493192  16.739933966075682  120.000000
0.7079999999999997  0.000000  0.000000  0.000000  -31.85554362473266  4.865455135292382  5.375990541947318  52.302961154053804  9.968853950856152  3.8090196518915627  15.526590428008431  19.50821145535394  -9.387023848249951  16.821931646208068  120.000000
0.7374999999999998  0.000000  0.000000  0.000000  -32.420174775125666  4.97278716651532  6.011302857585665  52.59693644222963  10.4543806445621  3.8536731680873015  14.279709706490719  20.693133678618626  -9.978371370034255  16.87187943428832  120.000000
0.7669999999999998  0.000000  0.000000  0.000000  -32.959244849798026  5.102694071184767  6.679721969625699  52.87086385515882  10.930795200862233  3.9068224365245103  13.080355560359207  21.81734281951243  -10.53077451346345  16.906211836087873  120.000000
0.7964999999999998  0.000000  0.000000  0.000000  -33.45824893209451  5.2571418109317385  7.378635348373843  53.118804248549885  11.392137067530522  3.9702506485191376  11.902243662435358  22.872000176919432  -11.047408254523667  16.94270273281311  120.000000
0.8259999999999997  0.000000  0.000000  0.000000  -33.90655472224021  5.43457861597439  8.108697089137962  53.3404106934775  11.835469729174706  4.044492872422819  10.718802245139964  23.850603618810318  -11.52834377872285  16.99888842394025  120.000000
0.8554999999999997  0.000000  0.000000  0.000000  -34.29824542133457  5.630002442836429  8.873092414873723  53.53970992561627  12.261059269006045  4.129131661936138  9.505959785708312  24.74931892674205  -11.969239681720943  17.090547137439735  120.000000
0.8849999999999998  0.000000  0.000000  0.000000  -34.63255769265384  5.835741491221437  9.676793041342643  53.72361104099487  12.671714578577896  4.222749377410183  8.244038432849289  25.566826050624496  -12.361786331366966  17.231113818233215  120.000000
0.9144999999999998  0.000000  0.000000  0.000000  -34.91338276800615  6.042493946187247  10.525555257074299  53.89912984110378  13.071608263040739  4.323399153048489  6.920084695187392  26.303971929371958  -12.695687371116623  17.429989023896475  120.000000
0.9439999999999997  0.000000  0.000000  0.000000  -35.148770580948934  6.240726026045096  11.425382333236081  54.071639210104536  13.464828239560552  4.428430047111009  5.52884267819809  26.963610780988233  -12.95978636007519  17.6910982281109  120.000000
0.9734999999999997  0.000000  0.000000  0.000000  -35.349686685215765  6.421573538851334  12.380872370608282  54.242869115164474  13.854991260639963  4.535715369557183  4.073095978407411  27.550241857247237  -13.143995429647045  18.01126280291875  120.000000
1.0029999999999997  0.000000  0.000000  0.000000  -35.52897121042928  6.57755406934527  13.396635916484982  54.410840735295366  14.242857942036565  4.642769749519462  2.5622596263035375  28.07017009992897  -13.23879838016812  18.380566042944622  120.000000
